<svg xmlns="http://www.w3.org/2000/svg" viewBox="0 0 140 140" width="140" height="140" fill="none">
  <defs>
    <linearGradient id="art-tile-bg" x1="0%" y1="0%" x2="100%" y2="100%">
      <stop offset="0%" stop-color="#111827"/>
      <stop offset="60%" stop-color="#0B101D"/>
      <stop offset="100%" stop-color="#050811"/>
    </linearGradient>
    <linearGradient id="art-cyan-ink" x1="0%" y1="100%" x2="100%" y2="0%">
      <stop offset="0%" stop-color="#8B0000"/>
      <stop offset="50%" stop-color="#FF0000"/>
      <stop offset="100%" stop-color="#00A651"/>
    </linearGradient>
    <filter id="brush-glow" x="-20%" y="-20%" width="140%" height="140%">
      <feGaussianBlur stdDeviation="3" result="blur"/>
      <feComposite in="SourceGraphic" in2="blur" operator="over"/>
    </filter>
  </defs>
  <rect width="140" height="140" rx="32" fill="url(#art-tile-bg)"/>
  <rect width="138" height="138" x="1" y="1" rx="31" stroke="#00A651" stroke-width="1.2" stroke-opacity="0.35"/>
  <path d="M22 70 C50 70, 90 70, 118 70" stroke="#1F2937" stroke-width="0.9" stroke-dasharray="3 3"/>
  <path d="M70 22 C70 50, 70 90, 70 118" stroke="#1F2937" stroke-width="0.9" stroke-dasharray="3 3"/>
  <g transform="translate(14, 12)">
    <path d="M34 26 C35 38, 33 72, 35 96 C36 100, 40 101, 42 100 C44 99, 44 94, 44 88 C43 66, 43 38, 43 24 C43 20, 38 19, 36 21 C34 23, 34 25, 34 26 Z" fill="#1E293B"/>
    <path d="M42 22 C54 20, 80 24, 98 44 C114 62, 115 84, 100 102 C86 116, 58 116, 42 110 C46 104, 49 100, 54 102 C68 105, 90 103, 100 88 C110 72, 106 54, 94 38 C80 24, 60 25, 45 28 Z" fill="url(#art-cyan-ink)" filter="url(#brush-glow)"/>
    <path d="M48 80 C49 80, 54 79, 56 80 L55 106 C52 106, 49 106, 48 106 Z" fill="#334155"/>
    <path d="M53 62 C54 62, 59 61, 61 62 L60 106 C57 106, 54 106, 53 106 Z" fill="#475569"/>
    <path d="M58 44 C59 44, 65 43, 67 44 L66 106 C63 106, 60 106, 58 106 Z" fill="#94A3B8"/>
    <path d="M64 12 C65 10, 68 9, 69 11 C70 15, 72 48, 72 106 C69 107, 66 106, 64 105 Z" fill="#FFFFFF" filter="url(#brush-glow)"/>
    <circle cx="67.5" cy="10.5" r="2.2" fill="#00A651"/>
    <path d="M72 50 C73 50, 78 49, 80 50 L78 106 C76 106, 73 106, 72 106 Z" fill="#94A3B8"/>
    <path d="M78 68 C79 68, 84 67, 86 68 L84 106 C82 106, 79 106, 78 106 Z" fill="#475569"/>
    <path d="M22 74 C34 66, 72 62, 108 76" stroke="#1E293B" stroke-width="2.5" stroke-linecap="round" stroke-dasharray="2 4"/>
    <path d="M16 82 C30 98, 66 108, 98 88 C114 78, 120 64, 114 54 C108 44, 94 46, 76 50 C72 51, 75 55, 79 54 C92 51, 104 51, 108 58 C112 64, 106 74, 94 82 C66 98, 34 90, 22 76 C18 72, 14 76, 16 82 Z" fill="url(#art-cyan-ink)" filter="url(#brush-glow)"/>
    <path d="M22 81 C36 94, 68 101, 96 84" stroke="#FFFFFF" stroke-width="1.2" stroke-linecap="round" opacity="0.85"/>
  </g>
</svg>
